# xmcd CD database file
#
# Track frame offsets:
#	150
#	20310
#	40650
#	62127
#	75215
#	93155
#	113005
#	133792
#	151500
#	171497
#	191362
#	208257
#
# Disc length: 2947 seconds
#
# Revision: 9
# Processed by: cddbd v1.5PL3 Copyright (c) Steve Scherf et al.
# Submitted via: CDex 1.51
#
DISCID=8c0b810c
DTITLE=Various Artist - Los Que Mas Te Gustan - Cadena 100
DYEAR=1999
DGENRE=Classical
TTITLE0=Elvis Crespo - Suavemente
TTITLE1=Shakira - Ciega, Sordomuda
TTITLE2=Chayanne - Dejaria Todo
TTITLE3=B Witched - C 'Ést La Vie
TTITLE4=Ricardo Arjona - Mentiroso
TTITLE5=Azucar Moreno - Olé
TTITLE6=Ricky Martin - La Bomba
TTITLE7=Javier Calamaro - Sin Ser Valiente
TTITLE8=Fey - Ni Tu Ni Nadie
TTITLE9=Antonio Romera y La Santa Margarita - Lluvia Morena
TTITLE10=Raffaela Carra - Fiesta
TTITLE11=Pancho y La Sonora Colorada - Todos Los Domingos (Tropi Dance Version)
EXTD=YEAR: 1999
EXTT0=
EXTT1=
EXTT2=
EXTT3=
EXTT4=
EXTT5=
EXTT6=
EXTT7=
EXTT8=
EXTT9=
EXTT10=
EXTT11=
PLAYORDER=
